<svg width="31" height="31" viewBox="0 0 31 31" fill="none" xmlns="http://www.w3.org/2000/svg">
<rect width="31" height="31" rx="6" fill="#00A335"/>
<g clip-path="url(#clip0_202_6)">
<path d="M23.77 10.23L23.78 10.22L20.06 6.5L19 7.56L21.11 9.67C20.17 10.03 19.5 10.93 19.5 12C19.5 13.38 20.62 14.5 22 14.5C22.36 14.5 22.69 14.42 23 14.29V21.5C23 22.05 22.55 22.5 22 22.5C21.45 22.5 21 22.05 21 21.5V17C21 15.9 20.1 15 19 15H18V8C18 6.9 17.1 6 16 6H10C8.9 6 8 6.9 8 8V24H18V16.5H19.5V21.5C19.5 22.88 20.62 24 22 24C23.38 24 24.5 22.88 24.5 21.5V12C24.5 11.31 24.22 10.68 23.77 10.23ZM16 13H10V8H16V13ZM22 13C21.45 13 21 12.55 21 12C21 11.45 21.45 11 22 11C22.55 11 23 11.45 23 12C23 12.55 22.55 13 22 13Z" fill="white"/>
</g>
<defs>
<clipPath id="clip0_202_6">
<rect width="24" height="24" fill="white" transform="translate(4 3)"/>
</clipPath>
</defs>
</svg>
